<svg xmlns="http://www.w3.org/2000/svg" viewBox="0 0 390.91 114.17"><path d="M142.39 52.66h-28.45V4.74h28.45v10.39h-15.5v7.54h14.36v10.39h-14.36v9.05h15.5v10.55zm15.5-18.94l-11.34-18.19h14.55l5.64 10.42 5.77-10.42h14.59l-11.64 18.19 12.09 18.95H173l-6.26-11.28-6.23 11.28h-14.59l11.96-18.95zm57.1-18.85c4.11 0 7.33 1.64 9.67 4.93s3.51 8.03 3.51 14.21c0 4.22-.59 7.76-1.77 10.64-1.18 2.87-2.79 5.04-4.83 6.49s-4.36 2.18-6.96 2.18c-1.75 0-3.23-.22-4.44-.66s-2.22-.98-3.02-1.64-1.47-1.32-2.02-2h-.39a59.15 59.15 0 0 1 .28 2.75c.08.98.11 2.13.11 3.44v13.57h-12.82V15.53h10.42l1.8 4.72h.59c.61-.96 1.35-1.85 2.23-2.67s1.94-1.48 3.2-1.97 2.74-.74 4.44-.74zm-4.82 10.06c-1.25 0-2.23.3-2.95.89s-1.24 1.48-1.56 2.67-.5 2.67-.54 4.44v1.02c0 1.97.15 3.62.46 4.97.31 1.34.83 2.36 1.57 3.05s1.77 1.03 3.08 1.03c1.07 0 1.97-.31 2.69-.92s1.27-1.58 1.64-2.92c.37-1.33.56-3.09.56-5.28 0-3.26-.42-5.56-1.26-6.92-.84-1.35-2.07-2.03-3.69-2.03zm42.02-10.06c3.61 0 6.72.63 9.34 1.88 2.62 1.26 4.64 3.14 6.06 5.65s2.13 5.66 2.13 9.44v5.7h-22.91c.11 1.94.84 3.54 2.18 4.79s3.33 1.87 5.95 1.87c2.32 0 4.44-.23 6.38-.69s3.93-1.17 5.98-2.13v9.21c-1.79.94-3.75 1.63-5.87 2.06-2.12.44-4.8.66-8.03.66-3.74 0-7.08-.67-10.03-2s-5.27-3.4-6.97-6.2c-1.69-2.8-2.54-6.39-2.54-10.78s.76-8.12 2.29-11c1.53-2.87 3.67-5 6.42-6.39s5.95-2.08 9.6-2.08zm.46 8.72c-1.51 0-2.77.48-3.79 1.43s-1.61 2.44-1.79 4.47h11.01c-.02-1.09-.24-2.09-.66-2.98s-1.02-1.61-1.82-2.13-1.79-.79-2.97-.79zm47.56-8.72c3.82 0 6.95 1.08 9.37 3.25 2.43 2.16 3.64 5.63 3.64 10.39v24.16H300.4V32.41c0-2.47-.36-4.33-1.07-5.59s-1.85-1.88-3.42-1.88c-2.43 0-4.05.99-4.88 2.97s-1.25 4.81-1.25 8.51v16.26h-12.82V15.53h9.67l1.74 4.92h.49c.79-1.18 1.73-2.19 2.82-3.02s2.35-1.46 3.77-1.9 3-.66 4.75-.66zm49.33 26.39c0 2.36-.52 4.45-1.57 6.26s-2.73 3.23-5.03 4.26-5.34 1.54-9.1 1.54c-2.64 0-5.01-.14-7.1-.43-2.09-.28-4.2-.83-6.34-1.64V40.99c2.34 1.07 4.72 1.84 7.15 2.31s4.34.7 5.74.7 2.5-.16 3.16-.48c.67-.32 1-.79 1-1.43 0-.55-.22-1.01-.67-1.39s-1.25-.82-2.39-1.33l-4.83-2.03c-2.05-.85-3.76-1.78-5.13-2.79-1.37-1-2.39-2.21-3.06-3.61-.68-1.4-1.02-3.11-1.02-5.15 0-3.63 1.4-6.36 4.2-8.19 2.8-1.84 6.5-2.75 11.11-2.75 2.45 0 4.75.27 6.92.8 2.16.54 4.4 1.32 6.72 2.34l-3.51 8.26a36.08 36.08 0 0 0-5.57-2c-1.88-.5-3.38-.75-4.49-.75-1.01 0-1.78.13-2.33.39s-.82.65-.82 1.15c0 .46.19.86.57 1.21s1.11.75 2.18 1.21a241.86 241.86 0 0 0 4.69 1.93c2.16.87 3.95 1.81 5.36 2.8s2.46 2.2 3.15 3.62 1.03 3.22 1.03 5.41zm23.83-26.39c3.61 0 6.72.63 9.34 1.88 2.62 1.26 4.64 3.14 6.06 5.65s2.13 5.66 2.13 9.44v5.7h-22.91c.11 1.94.84 3.54 2.18 4.79s3.33 1.87 5.95 1.87c2.32 0 4.44-.23 6.38-.69 1.93-.46 3.93-1.17 5.98-2.13v9.21c-1.79.94-3.75 1.63-5.87 2.06-2.12.44-4.8.66-8.03.66-3.74 0-7.08-.67-10.03-2a15.32 15.32 0 0 1-6.96-6.2c-1.69-2.8-2.54-6.39-2.54-10.78s.76-8.12 2.29-11 3.67-5 6.42-6.39 5.95-2.08 9.6-2.08zm.46 8.72c-1.51 0-2.77.48-3.79 1.43s-1.61 2.44-1.79 4.47h11.01c-.02-1.09-.24-2.09-.66-2.98s-1.02-1.61-1.82-2.13-1.79-.79-2.97-.79z" fill="#df3148"/><path d="M166.13 113.49h-6.62V69.36H144.2v-5.73h37.21v5.73h-15.28v44.13zm39.66-38.2a23.23 23.23 0 0 1 2.27.12c.81.08 1.51.19 2.1.32l-.72 5.97c-.57-.16-1.22-.28-1.94-.36-.73-.08-1.41-.12-2.05-.12-1.48 0-2.88.28-4.19.84-1.32.56-2.48 1.37-3.48 2.44s-1.79 2.36-2.35 3.89c-.57 1.52-.85 3.24-.85 5.15v19.95h-6.45V75.98h5.22l.75 6.82h.27c.77-1.36 1.71-2.61 2.81-3.75s2.38-2.05 3.82-2.73 3.04-1.02 4.79-1.02zm25.61.07c4.57 0 7.98 1.02 10.23 3.05 2.25 2.04 3.38 5.26 3.38 9.67v25.41h-4.64l-1.23-5.46h-.27c-1.05 1.36-2.14 2.5-3.27 3.41-1.14.91-2.45 1.59-3.94 2.05-1.49.45-3.31.68-5.47.68-2.27 0-4.29-.4-6.05-1.21s-3.15-2.03-4.16-3.67-1.52-3.72-1.52-6.24c0-3.8 1.47-6.69 4.4-8.68s7.39-3.07 13.37-3.26l6.48-.24v-2.18c0-3.05-.67-5.18-2-6.41s-3.2-1.84-5.61-1.84c-1.93 0-3.79.28-5.56.84s-3.48 1.22-5.12 2l-2.01-4.74c1.75-.89 3.74-1.64 5.97-2.25s4.57-.92 7.03-.92zm7.26 19.85l-5.42.2c-4.46.16-7.59.89-9.41 2.2s-2.73 3.14-2.73 5.51c0 2.05.62 3.55 1.86 4.52s2.88 1.45 4.93 1.45c3.14 0 5.72-.88 7.74-2.64s3.04-4.38 3.04-7.86v-3.38zm32.92 18.96c-3.43 0-6.44-.69-9.02-2.08s-4.59-3.5-6.02-6.34-2.15-6.45-2.15-10.81.76-8.26 2.28-11.15 3.63-5.02 6.33-6.41c2.69-1.39 5.76-2.08 9.19-2.08 1.98 0 3.85.2 5.63.6 1.77.4 3.24.89 4.4 1.48l-1.91 5.29c-1.23-.5-2.58-.93-4.06-1.3-1.48-.36-2.88-.55-4.19-.55-2.46 0-4.5.53-6.14 1.6s-2.86 2.64-3.67 4.72-1.21 4.66-1.21 7.72.4 5.46 1.19 7.52c.8 2.06 1.98 3.62 3.56 4.69s3.55 1.6 5.92 1.6c2 0 3.8-.22 5.41-.67a27.01 27.01 0 0 0 4.42-1.62v5.66c-1.3.7-2.73 1.23-4.3 1.59-1.57.35-3.46.53-5.66.53zm25.2-53.75v26.94l-.1 3.48-.2 3.58h.24l2.1-2.68 2.34-2.78 12.14-12.99h7.47L305.7 92.03l16.13 21.45h-7.67l-12.82-17.32-4.54 4.06v13.27h-6.38V60.43h6.38zm46.01 14.87c3.23 0 6 .7 8.32 2.1s4.1 3.37 5.34 5.92 1.86 5.54 1.86 8.97v3.79H332.7c.07 4.14 1.12 7.3 3.15 9.5 2.03 2.19 4.9 3.29 8.61 3.29 2.36 0 4.47-.22 6.33-.67 1.85-.44 3.78-1.1 5.78-1.96v5.49c-1.89.84-3.77 1.46-5.66 1.86s-4.13.6-6.72.6c-3.64 0-6.81-.73-9.53-2.18s-4.83-3.61-6.34-6.46-2.27-6.36-2.27-10.52.69-7.61 2.08-10.56c1.39-2.94 3.33-5.21 5.83-6.79s5.44-2.37 8.83-2.37zm-.03 5.08c-2.87 0-5.16.94-6.89 2.81-1.73 1.88-2.75 4.52-3.07 7.93h18.96c-.02-2.11-.36-3.98-1.01-5.59s-1.63-2.88-2.95-3.79-3-1.36-5.05-1.36zm42.66-5.08a23.23 23.23 0 0 1 2.27.12c.81.08 1.51.19 2.1.32l-.72 5.97c-.57-.16-1.22-.28-1.94-.36a18.69 18.69 0 0 0-2.05-.12c-1.48 0-2.88.28-4.2.84s-2.48 1.37-3.48 2.44-1.79 2.36-2.35 3.89c-.57 1.52-.85 3.24-.85 5.15v19.95h-6.45V75.98h5.22l.75 6.82h.27c.77-1.36 1.71-2.61 2.81-3.75s2.38-2.05 3.82-2.73 3.04-1.02 4.79-1.02zM99.48 43.01c1.54 10.92-.58 21.51-5.4 30.54l34.37 25.9c3.39 2.55 4.07 7.38 1.52 10.78-2.55 3.39-7.38 4.07-10.78 1.52l-34.37-25.9C77.48 93 67.89 97.94 56.97 99.48 29.63 103.33 4.35 84.31.5 56.97-3.36 29.63 15.67 4.35 43.01.5c27.34-3.86 52.61 15.17 56.47 42.51z" fill="#df784b"/><path d="M54.72 25.54c0-2.64-2.16-4.81-4.81-4.81a4.82 4.82 0 0 0-4.81 4.81v3.36c-1.83.41-3.65 1.06-5.33 2.04-3.34 1.99-6.22 5.48-6.2 10.55.02 4.88 2.88 7.95 5.94 9.78 2.64 1.59 5.94 2.6 8.55 3.36l.41.12c3.03.91 5.24 1.63 6.73 2.57 1.23.77 1.39 1.3 1.42 1.97.02 1.2-.43 1.92-1.42 2.52-1.2.74-3.1 1.2-5.14 1.13-2.67-.1-5.17-.94-8.43-2.04l-1.73-.58c-2.52-.84-5.24.53-6.08 3.03s.53 5.24 3.03 6.08a25.71 25.71 0 0 1 1.47.5h0c1.99.7 4.3 1.49 6.78 2.02v3.56c0 2.64 2.16 4.81 4.81 4.81a4.82 4.82 0 0 0 4.81-4.81v-3.32c1.92-.41 3.84-1.08 5.57-2.16 3.44-2.14 6.03-5.79 5.96-10.81-.07-4.88-2.81-8.03-5.91-10-2.76-1.73-6.22-2.79-8.91-3.6l-.17-.05c-3.08-.94-5.26-1.61-6.8-2.52-1.25-.74-1.27-1.18-1.27-1.61 0-.89.34-1.56 1.49-2.23 1.3-.77 3.27-1.23 5.17-1.2 2.31.02 4.85.53 7.5 1.25a4.83 4.83 0 0 0 5.89-3.41c.7-2.57-.84-5.19-3.41-5.89-1.56-.41-3.29-.82-5.07-1.13v-3.29z" fill="#fff"/></svg>
